<svg viewBox="0 0 220 220" xmlns="http://www.w3.org/2000/svg">
  <rect width="220" height="220" fill="#FDFAF5" />

  <g transform="translate(27.5,27.5) scale(0.75)">
    <circle cx="110" cy="118" r="92" fill="url(#foxGlow)" opacity="0.4" />

    <path d="M62 70 L48 28 L96 58 Z" fill="#F97316" />
    <path d="M158 70 L172 28 L124 58 Z" fill="#F97316" />
    <path d="M67 64 L58 38 L88 56 Z" fill="#FFE3D1" />
    <path d="M153 64 L162 38 L132 56 Z" fill="#FFE3D1" />

    <ellipse cx="110" cy="116" rx="62" ry="58" fill="#FB923C" />
    <path d="M75 122 Q110 162 145 122 Q132 150 110 150 Q88 150 75 122 Z" fill="#FFF4EC" />

    <ellipse cx="89" cy="112" rx="8" ry="10" fill="#1C1917" />
    <ellipse cx="131" cy="112" rx="8" ry="10" fill="#1C1917" />
    <circle cx="92" cy="108.5" r="2.6" fill="#FFFFFF" />
    <circle cx="134" cy="108.5" r="2.6" fill="#FFFFFF" />

    <ellipse cx="76" cy="128" rx="9" ry="6" fill="#F97316" opacity="0.35" />
    <ellipse cx="144" cy="128" rx="9" ry="6" fill="#F97316" opacity="0.35" />

    <ellipse cx="110" cy="132" rx="6" ry="4.5" fill="#1C1917" />
    <path d="M110 136 Q110 144 100 146" stroke="#1C1917" stroke-width="2.4" stroke-linecap="round" fill="none" />
    <path d="M110 136 Q110 144 120 146" stroke="#1C1917" stroke-width="2.4" stroke-linecap="round" fill="none" />
  </g>

  <defs>
    <radialGradient id="foxGlow" cx="50%" cy="50%" r="50%">
      <stop offset="0%" stop-color="#FBBF24" />
      <stop offset="100%" stop-color="#FBBF24" stop-opacity="0" />
    </radialGradient>
  </defs>
</svg>
